<svg id="Layer_1" data-name="Layer 1" xmlns="http://www.w3.org/2000/svg" viewBox="0 0 890.22 514.44"><defs><style>.cls-1{fill:#677a52;}</style></defs><path class="cls-1" d="M694.58,319c-.78-1.4-1.57-2.79-2.34-4.2-1-1.73-2.82-3.56-2.67-5.19.82-9.07-4-16.63-7.58-23.92-2.43-4.91.79-9.94-4-15.51-.52,1.34-.66,2.73-1.43,3.41a4.5,4.5,0,0,1-3.41,1.07c-.7-.14-1.7-1.88-1.54-2.7,1.14-5.79-2.67-9.22-5.72-13.14-1.7-2.19-2.87-4.81-4.51-7.62q-1.33,1.56-4.11,4.76l-4.93.31,1,1.18c-2.71,2.91-5.31,5.94-8.18,8.7-3.81,3.67-8,6.95-11.62,10.81-1,1.07-.61,3.61-.55,5.46.17,5.11,1.09,10.36-2.48,14.76-1.06,1.31-2.69,2.15-4,3.2A35.19,35.19,0,0,1,624,296c-2.19-5.2-3.68-10.79-6.48-15.61-3.49-6-5.45-12.06-4.89-19a23,23,0,0,0-.23-3.62c-2.57.31-5.35,1.45-7.32.64-1.69-.69-2.19-3.87-3.7-5.51-2.67-2.88-5.7-5.42-8.6-8.11-3.15.58-6.69,3.07-8.41-1.93-6.75,4.49-14.34,2.42-16.86-4.31-7.33,4.56-15,.89-17.9-8.55l-6.47-.52c1.16,5.29,4.95,8.25,8.33,11.56,1.08,1.06,1.49,2.78,2.47,4s2.32,3.07,3.74,3.35a8.28,8.28,0,0,0,5.41-1.26,9.45,9.45,0,0,0,2.57-3.08c2.8,1.93,5,3.83,7.51,5.09,4.4,2.22,5.39,6.71,1.93,10.11-.58.56-1.51,1.15-1.56,1.79-.74,8.26-8.3,9.09-13.38,12.75-3.36,2.41-6.47,5-10.54,6.16-1.09.3-2.24,1.08-3.23.91-3.65-.64-5.94,1.26-8.25,3.62-.9.92-2.92,2.14-3.45,1.78-1.35-.91-3.14-2.74-3-4,.94-9.11-4.37-15.46-9-22.23-1.37-2-2-4.51-3.17-6.69-1.62-3.05-3.44-6-5.12-9-1-1.79-1.83-3.68-2.9-5.42a10.33,10.33,0,0,0-2.5-2.84,31.42,31.42,0,0,0-7.28-4c2.24,3.39,4.33,6.9,6.77,10.14,2.05,2.73,5.24,4.87,3,9a2.63,2.63,0,0,0,.39,2.36c5.76,6.53,6.62,15.8,11.92,22.25,3.29,4,5.24,8.27,7.61,12.6,2.15,4,9.88,5,14,3,2.6-1.3,5.25-2.48,8.09-3.82,3.44,2.22,3.61,5.14,1.41,8.93-4.91,8.49-7.25,18.4-15.75,24.89-4.72,3.61-8.08,9-12.1,13.5-3.31,3.72-3.34,8-2.61,12.59,1.15,7.29,2.22,14.6,3.11,21.93.58,4.86-1,8.23-6.09,10.36-2.9,1.23-4.66,4.93-7.36,6.92-4,2.91-2.31,6.13-1.78,9.79.58,4,1.67,9.05-4.79,10.09-.43.07-1.16.56-1.16.85.13,5.31-2.45,9.43-5.57,13.4-1.46,1.84-2.51,4-3.94,5.85-1.18,1.53-2.39,3.39-4,4.14a111.13,111.13,0,0,1-12.48,4.65c-1.87.6-4.73,0-5.72,1.11-2.77,3.21-5.37,2.28-7.84.41s-4.69-4.52-1.67-7.48c-1.41-2.62-3.16-4.82-3.83-7.31-1.88-7-6.76-12.85-6.45-21,.2-5-3.52-10.14-5.76-15.1s-2.62-9.47.13-14.18c1.66-2.84,3.29-5.7,4.44-7.68-1.45-7.7-2.43-14.88-4.28-21.83C448.69,340,446,338,444.09,336c-2.79-2.94-6.11-5.15-2.26-10.15,1.57-2.05.26-6.3.26-10.53a35.21,35.21,0,0,0-5.47-1.83c-3.38-.65-6.51-1.13-7.07-5.54-.12-.9-2-1.86-3.26-2.24a4.69,4.69,0,0,0-3.41.39c-6.28,3.81-13,4.88-20.27,4.3a5.37,5.37,0,0,0-3.82,1.93c-2.58,3.14-5.25,2.31-7.17-.09-5.65-7.05-10.78-14.52-16.48-21.53-2.1-2.58-5.14-4.23-3-8.33.25-.46-2.06-2.28-3.44-3.74,4.59-2.77,5.68-6.7,4.19-12-2.18-7.81.71-15.29,3.13-22.55.86-2.58,3.75-4.48,6.37-7.43,2.24,0,8-5.4,8.11-9.26.18-4.6,0-8.83,6.3-10,1.83-.34,3-4.45,4.38-6.78.41-.09.86-.31,1-.18,5.12,4.48,9.36.22,14-1.25a130.85,130.85,0,0,1,15.07-3.93,45.94,45.94,0,0,1,10.68-.54c1.46.06,4,1.25,4.09,2.17.37,2.87-.17,5.85-.36,8.78l-1.83,1L468,227.44c.86-2.61,1.17-4.78,2.23-6.48,1.71-2.69,3.52-3.17,7-1.27s6.75,5.52,11.74,4.63c1.33-.24,3,1.6,4,2.17,2.13-.86,3.91-1.92,5.83-2.27,2.41-.44,6.36.63,7.14-.58,2.14-3.32,3.13-7.45,4.26-11.36.33-1.12-.41-2.56-.54-3.27-3.9-.95-7.45-2.1-11.08-2.55-1.34-.16-2.88,1.36-4.29,2.09-9.69-6.24-10.43-8.8-4.37-17.77-4.62,3.06-10.85-.22-13.1,6.67l4,3.26c-1.07.45-2,.58-2.54,1.12-4.15,4.46-3.36,4-6.63-1.54-3.74-6.37-5.95-14.11-13.55-17.87-2-1-2.93-4.09-4.62-6-.89-1-2.39-1.42-3.61-2.1-.17,1.48-1.05,3.58-.39,4.31,3.11,3.47,3.62,9.26,10.13,10,2.35.27,4.24,4.52,7.18,7.94l-5.18-1.29-2,6.78-1.61,0c.65-6.74-4.23-9-8.46-12.24-3.36-2.54-5.86-6.21-9-9.71-1.54.89-3.53,2.19-5.67,3.19a4.35,4.35,0,0,1-3.07.22c-3.4-1.29-5.86-2.39-6.92,3.08-.52,2.69-4.48,4.59-6.49,7.16-1.08,1.37-1.21,3.44-2,5.1a62.16,62.16,0,0,1-3.58,7c-1.17,1.88-11.68,2.35-13.2.79-.54-.55-1.45-1.57-1.71-1.43-6,3.07-5.19-3.74-7.86-5.43-.33-.21-.32-1.79.08-2.21,3.44-3.64,2.79-7.76,2.24-12.21-.36-2.91,1.75-5,5.11-4.51,4.51.64,9,1.41,13.45,2.12,2.38-9.84,2.38-9.84-6.54-18.06l7.6-4.54c3.06-1.37,5.63-2.2,7.85-3.59,2.38-1.49,4.43-3.5,7.47-6,0-6.54,7.44-4.9,12.56-8-1-2-1.94-4.09-3.14-6-1.33-2.18-1.81-4.59,1.13-5,4.23-.62,2.5-2.72,1.55-5.28a12.35,12.35,0,0,1,2.7,0c.53,2.52,1.63,5.27,1.07,7.59-1,3.92-.06,8.66,2.81,8.69a19.81,19.81,0,0,0,8.58-1.49c3-1.44,5.43-2.43,8.87-1.35,3.22,1,6.24-3.52,6.71-9.26.13-1.65.42-3.28.64-4.94l6.17,2.85.75-1.49-3.19-3.5c2.56-4.86,6.46-5.32,11.47-3.43-1.1-3.67-2.28-5.31-5.75-3.42-4.4,2.4-8.35,1.51-10.37-2-2.92-5.06-2-9.66,2.37-12.63a14.22,14.22,0,0,0,2.13-2.05c1.33-1.37,2.63-2.77,4.84-5.09-2.05-.59-4.45-2-6.56-1.63-1.27.21-1.95,3.22-3.16,4.77-1.73,2.22-3.33,4.86-5.64,6.23-4.54,2.69-6.09,6.45-2.74,10.33s3.5,6.8-.62,10.47c-2.3,2.05-2.83,6-4.8,8.52-3.53,4.61-4.1,4.4-6.46-.85-.13-.28-.48-.45-.65-.72-1.75-2.87-2.9-7.15-5.4-8.2-2.24-.94-6,1.7-9.06,2.68a5.86,5.86,0,0,1-1.82,0c-1.56-4.12-3.22-8-4.5-12-1.08-3.37,1.56-7.33,5.74-8.53,6.38-1.84,10.28-6.61,13-12,3.11-6.1,5.95-11.49,13.75-12.6,3-.44,5.75-3.15,8.88-5-1.11-1.78-1.8-2.87-3.37-5.4l9.87.64c.27-.71.82-3.34,1.34-3.34,2.2,0,4.39.85,7.68,1.64,1.81-1,5-3.35,6,2.57.08.53,1.18,1,1.88,1.33,6,2.83,12.08,5.49,18,8.52,1.56.8,2.56,2.67,3.82,4-1.82,1.52-3.45,3.81-5.52,4.34-2.38.61-5.16-.35-7.76-.63-.49,5.54,1.58,9.18,6.56,11.38a47.3,47.3,0,0,1-1.66-5.27c0-.13,2.38-1.32,3-.94,1.44.93,2.47,2.48,4.12,4.27.32-.6,1.24-1.54,1.24-2.49,0-1.46-1.14-4.08-.88-4.2a40.67,40.67,0,0,1,7.5-2.47c.62-.15,1.45.56,3.17,1.3a57.42,57.42,0,0,1-2.38-7.12c-.29-1.47.16-3.09.29-4.64,1.76,1,3.85,1.63,5.16,3,.93,1,.78,3,1.34,5.54,3.11-2.42,5.25-5,8-6,4.18-1.5,8.76-1.87,13.17-2.77,2.42-.49,4.83-1.08,7.81-1.75l1.93,2.75,1-.14c-.09-1.87-.17-3.73-.27-5.72,5-2.7,10.84-.72,19.59,7.59-.38-2.32-.27-3.65-.83-4.58-1.18-2-2.89-3.68-4-5.69s-2.36-4.25.71-6.44c1.37-1,1.16-4,2.16-5.73s2.47-4,3.85-4.08,3.72,2,4.23,3.6c2.23,6.92,4,14,5.81,21,.72,2.89-.09,5.27-3.43,6.16a18.35,18.35,0,0,0-3.1,1.56c4.25,2.88,6.69,2.16,8.7-2.19,3.87-8.39,3.86-8.39,11-1.8.21.2.59.22,1.46.52-1.76-2.66-3-5.15-4.87-7.11-.92-1-3.21-1.81-4.28-1.34-3.67,1.59-4.27,0-4.67-3.17-.33-2.69-1.57-5.26-2-7.94-.29-1.84.14-3.79.25-5.68l1.56-.34c.69,1.9,1,4,2.16,5.63a10.44,10.44,0,0,0,5.46,3.53c-.35-1-1-2-.93-2.93a4.47,4.47,0,0,1,1.58-2.8A2.83,2.83,0,0,1,603,63c3.06,2.06,6,4.31,10.06,5.84-1.65-2-3.37-3.93-4.93-6-1.06-1.4-2.68-3-2.59-4.43.07-1.16,2.2-2.89,3.62-3.12,3-.48,6.11-.14,9.56-.14-1.32-2.19-2.23-3.7-3.15-5.21,1.84-1,3.58-2.39,5.55-3,4.67-1.47,9.4-3.17,14.22-3.7,4.2-.46,8.57.54,11.58.79,1.79-3.32,2.57-6.82,4.74-8.34,3.29-2.29,5.79.76,7.71,3.38,1.53,2.1,2.76,2,5.34,1.11s6.18.36,9.29.83c.48.07.83,1,1.26,1.49,1.37,1.58,4.21,4,3.88,4.58a22.61,22.61,0,0,1-5.86,6.25c-2.41,1.8-5.25,3-7.7,5.13,13.21-5.87,25.92-4.43,38.68,2,1.5-4.06,4.17-6.37,8.27-5,2.33.8,4.29,2.66,6.42,4q-1.22,1.83-2.41,3.66c6.4,4.47,10.69,4.64,12.15,1.58l17,1.34c.59-2.36.55-4.57,1.62-5.85,1.48-1.77,3.35-.52,5.47,0,4,.94,7.68,4.42,12.47,2.1,1.23-.6,3.69.69,5.31,1.6,5.13,2.9,9.64,6.78,16.5,4.17a8.85,8.85,0,0,1,10.58,3.73c1.22,1.81,2.16,3.81,3.19,5.65,8.19-7.49,14.86-2.82,21.8-2.11l1.69-4.28c16.13,1,29.84,7.49,42.1,16l13.87,1.63c1.53,4.23-1.61,4.83-4.95,5.64a12.56,12.56,0,0,1,1.5,3.05c.17.95.12,2.44-.46,2.89a3.6,3.6,0,0,1-3,.09,85.61,85.61,0,0,1-11.58-5.45c-1.81-1.12-2.82-3.57-4.25-5.49-2.77,1.12-2.77,1.12-1.11,5.67-1.55,1-3.15,2.13-4.9,3.33,2.65,3.43,9.51,3.56,8.1,8.54-4.6,1.26-8,2.65-11.44,3-5.57.61-3.72,6.27-6.47,8.67-5.4-4.12-10.69-4-15.6,1-1.35,1.39-2.2,4.84-1.4,6.34,1,1.95,4,2.89,5.59,4-3.82,8.68-6.83,15.49-10,22.69-1.62-.95-2.88-1.24-3.18-1.93-3-6.74-8.38-13.26-6.1-20.92,1.47-4.92,5.48-9.25,9-13.33,2.83-3.34,3.28-3.35.76-7.42-1.33,1.78-2.54,3.4-3.93,5.28a12.9,12.9,0,0,0-2.09-1.5c-2.28-1-5-3-6.79-2.45s-3,3.75-4.14,6c-.77,1.54-.41,4.11-1.51,4.93-2.06,1.54-4.74,3.29-7-.53-.52-.87-3.23-.75-4.87-.54-2.05.26-4,1.4-6.06,1.58-3.1.27-6.44-.63-9.31.22a14.24,14.24,0,0,0-6.63,5c-2.68,3.52-4.67,7.56-7.11,11.65l6.24,5.1c2.95-2.89,5.48-2.72,8.06.83a5.38,5.38,0,0,1,1.39,2.62c.11,7,2.62,14.2-.49,21.14-1.64,3.64-3.38,7.25-5.37,10.7-1.87,3.25-4.12,5.9-8.75,5.15-1.4-.23-3.77,1.39-4.62,2.8-1.83,3-3,6.49-4.49,10.05,1.51,1.76,4.07,4.16,5.89,7,1.17,1.84,2.21,4.69,1.58,6.49a8.22,8.22,0,0,1-5.21,4.62c-3,.59-2-2.36-2.66-4.3-1.27-3.94-4-7.41-6.15-11.07l-1.59.53c.77-1.15,1.55-2.29,3.36-5-2.88.34-4.55.28-6,.77a44.23,44.23,0,0,0-5.48,2.69c-.47-2.71-.82-4.75-1.44-8.28L728.76,201c.8,2.75,1.9,3.3,6.21.81,2.42-1.4,4.74-1.48,5.65,1.35.3.92-1.51,3.24-2.82,3.79-3.3,1.37-3.94,3.22-2.28,6.19.73,1.31,1.05,3.09,2.12,3.91,5.16,3.93,3.89,10.22,5.79,15.32.43,1.16-1.1,3-1.59,4.58-2,6.29-6.75,10.69-10.53,15.76-.78,1-2.69,2.23-3.73,2-6.43-1.64-10.73,2-15,6.08-.94-1.78-1.64-3.13-2.46-4.69a31.3,31.3,0,0,1-3.07,4.15c-4.42,4.21-4.23,6.39.16,11,2.54,2.65,5.45,5.72,6.29,9.08,2.25,9-1.54,15.1-10.93,19.43-2.59-2.1,3-10.95-5.84-7.67a6.68,6.68,0,0,1-.81-1c-1-1.9-1.8-3.88-2.94-5.67a3.81,3.81,0,0,0-2.46.56,26.17,26.17,0,0,0-.17,6.61c.67,4.85,4,8.14,7.45,11.14,5.18,4.47,5.12,10,3.63,16.84l-7-1.72ZM502.36,175.37l-5.28-7c-.74,2.21-1.15,3.68-1.72,5.08s-.92,3.14-2,3.93c-4.84,3.65-6.45,7.29-5,12.63,4.7-.67,9.49-1,14.09-2.12,3.34-.83,5.65-1.27,8.79,1.39,2.26,1.92,6.52,1.65,9.93,1.9,1.1.08,3.27-1.28,3.28-2,0-1.63-.53-3.88-1.7-4.81-3.65-2.92-7.69-5.34-12.21-8.37l5.94-6.63-.57-.9-12.38,5.24,6.08,2.85-.05,1.34-10.67,2.12-1.15-2.22Zm45,18.63c-5.13,8.68-3.6,7.92,3,12.38,1.17.79,4-.17,5.67-1.1.88-.5,1.33-2.75,1.09-4.05-.59-3.22-1.71-6.35-2.56-9.53-.11-.4.14-.9.23-1.43l4.53,2.35c-.9-2.83-1.23-4.52-2.06-5.92-.16-.27-2.27.61-2.47.67-1.89-1.19-3.79-1.94-5-3.3s-2.33-3.72-1.79-4.62c1.26-2.06,3.55-3.5,6.21-5.9,0-.21.15-1.74.27-3.1-2-.12-4-.84-5.36-.19-3.42,1.66-7.05,3.45-9.57,6.14-1.18,1.27-.75,5.15.29,7.14C541.73,187.23,544.66,190.4,547.33,194Zm26.15-13.84c9.24,2.76,9.46,2.72,9.34-2.51a14.55,14.55,0,0,0-1.22-6c-.4-.79-3.6-1.23-3.81-.86C576.18,173.61,575,176.7,573.48,180.16Z"/><path class="cls-1" d="M243.73,508.1l-4.38,3.33c-3.21-3.86-6.81-8.21-10.45-12.53-2.58-3.06-4.65-6.17-2.09-10.3a4.23,4.23,0,0,0,.18-2.21c-.07-2.22-.56-4.48-.24-6.63.53-3.66,2.5-7.41-1.67-10.27-.12-.09-.34-.25-.32-.32,2.49-7.55-4.31-14.84-.21-22.82,1.77-3.44.53-8.43.61-12.72,0-1.62-.37-3.31-.06-4.87,1.32-6.62,3.72-13.17,4-19.82.34-7.55-.88-15.22-2-22.75-.25-1.72-2.56-3.89-4.38-4.5-10.46-3.49-12.84-13.21-17.1-21.46-1.94-3.76-3.46-7.73-5.18-11.6a3.67,3.67,0,0,0-.67-1.27c-4.66-4.26-4.62-6.18.25-9.71-3.2-5.7-2.64-9.37,2.16-14.08,7.54-7.42,7.62-16.82-.28-22.51-.19,4.26-1.87,4.64-5.16,2.49-3.44-2.24-7.7-3.36-10.82-5.93-2-1.67-3-5-3.88-7.69-1.39-4.14-4.78-5-8.31-6.19a17,17,0,0,1-6.16-3.31c-2.58-2.34-4.78-4-8.71-2.83-2.06.61-5.05-.24-7.06-1.4-5.91-3.39-11.57-7.21-17.22-11-.71-.48-.85-1.86-1.19-2.84-1.18-3.42-1.6-7.38-3.64-10.16-4.59-6.26-9.61-12.06-11.7-19.85-.55-2.06-3.14-3.57-5.43-5,1.44,10.43,11.27,17.37,11,29-2-1.87-5.41-3.56-5.66-5.64-.67-5.63-4.19-8.27-9.33-10.46,3.65-3.53,2.08-5.76-.06-8.82s-2.62-7.3-3.91-11.27l-10.1-9.61L96,209.8c-1-2.36-2.12-4.72-3.14-7.09-.57-1.34-1.63-2.78-1.49-4.06.54-4.93,1.65-9.79,2.22-14.72.64-5.48,5-10.33,2.8-16.26-.55-1.46-1.64-2.74-2.08-4.23a11.27,11.27,0,0,1-.17-5.18c-.85-2.9-1.65-5.83-2.57-8.71a9.18,9.18,0,0,0-1.33-2.18c-1-1.56-3.37-3.64-3-4.55,2-4.45-2.75-5.52-3.66-8.38-2.31-7.21-10.87-5.86-15-10.89-1.32-1.63-4.45-1.71-6.65-2.72s-4.58-1.94-6.32-3.52c-2.23-2-3.07-1.63-4.27.89-2.42,5.08-7.49,8.09-12.68,6.54l7.77-8.8c-2.46-2.14-4.25-.41-5.89,2l-8.5,12.45.17-.14c-2.21,1.35-4.41,2.73-6.63,4.07-5.66,3.41-11.18,7.1-17.08,10.06-2.25,1.13-5.35.55-8.06.75L0,142.94c4.53-2.1,9.28-3.82,13.52-6.39,3.79-2.3,9.85-2.9,9.69-10l-10.36.9L14.26,121c-1.46,0-3.24.45-4.59-.11-2-.84-2.78-2.45-.3-4l-2.12-3.36c7.72-6.36,11.13-8.29,15.49-8.76.51-1.43,1.05-2.92,1.49-4.13-3,.47-6.23,1.95-8.69,1.1-2.27-.78-3.67-4.08-5.39-6.18,5.87-6.24,13.31-1.7,20.46-4.21-1.62-.72-2.49-1.15-3.39-1.49a65.33,65.33,0,0,1-7.83-3c-1-.54-2-2.55-1.73-3.52A4.22,4.22,0,0,1,21,81.16c4.06,0,7.74-.13,8.66-5.22.07-.35.66-.76,1.08-.87C34.88,74,39.08,73,43.21,71.76a27.94,27.94,0,0,0,4.35-2.18c1.78,5.55,4.75,4.45,8.12.87,1.7,3.87,4.91,3.14,7.76,4,6,1.92,12.28-1.52,18.26,2.59,4.41,3,10.57,3.48,16,5.1,2.9-5.42,8.64-9,12.94-7.37l-3.74,2.82.9,1.11,7.32-5.9c2.56,4.85,6.85,3.76,11.56,4,6.74.29,13.4,2.79,20,4.7.75.21.85,2.67,1.42,4.66,5.43-6.64,7.49,2.35,11.76,2.72a21.28,21.28,0,0,1,1.29-4.25c1.28-2.31,2.73-3.53,5.45-1.16C171,87.29,177.19,87,182,84c1.61-1,4.34-.15,6.6.41,6.29-2.8,6.32-4.67.17-9.67,1.41-1.69,2.61-3.68,4.32-5,1.25-.95,3.7-1.85,4.69-1.24,1.26.76,1.73,3,2.28,4.71.94,2.89,1.67,5.84,2.71,9.54l4.34-4.87c.5,4.12.85,7,1.35,11.08,2.37-3.67,4.81-6.32,5.91-9.45,1.35-3.8,3.74-3.59,6.23-2.42s4.72,3,1.68,6.12c-.53.55-.35,1.77-.55,2.68-.41,1.86-.32,4.83-1.4,5.35-2,.94-4.65.48-7,.53-1.07,0-2.49-.62-3.16-.14-4.8,3.49-4.76,3.55-9.62,2.14.75.94,1,1.37,1.39,1.72,1.17,1.1,2.36,2.17,3.55,3.25-1.49,1.53-3,3.08-4.48,4.57-.17.17-.81-.1-1,.07-5.73,6.66-15.48,9.83-17.67,19.59l1.31-.15a40.42,40.42,0,0,0,3.23,6,12.66,12.66,0,0,0,4.15,3.06c2.18,1.17,4.54,2,6.74,3.12,3.88,2,7.69,4.09,11.53,6.15l1.52-1c-.38,2.68-1.23,5.4-1,8,.21,2.33,1,5.73,2.64,6.54,2.82,1.42,5.83-1.75,6.14-5.42.35-4.08-1-8.66,4.37-11.16.93-.43.41-4.65.05-7-.47-3.11-2.39-6.15,1.56-8.66.86-.55,1-3.25.57-4.66-1.48-4.55.46-7.65,2.8-9.9,3.55.62,6.37,1,9.12,1.63a9.33,9.33,0,0,1,3.39,1.73c2.17,1.66,4.23,3.47,5.24,4.32.52,4.1-.18,9.44,1.57,10.43,6.07,3.43,7.75-3.08,10.75-6.88,2.46,3.9,4.93,7.41,6.91,11.18.59,1.13-.61,3.1-.22,4.46,1,3.54,3.87,5.18,7.79,5.83l-2.67,4.51c1.92.1,5.3-.3,5.52.37.85,2.55.73,5.44.87,8.21a1.39,1.39,0,0,1-.9,1c-7.11.5-12.85,6.72-20.68,4.57-5.95-1.63-9.51,3-13.81,5.57l.67,1.39a31.74,31.74,0,0,1,5-2.83,23.12,23.12,0,0,1,5-.72c0,1.37-.45,3,.16,4.05a17,17,0,0,0,4.46,5c1.57,1.15,3.69,1.54,6.38,2.58-5,3.38-8.9,6.2-13,8.76-.63.39-2-.39-3-.63.26-1,.2-2.37.84-3,2.11-1.92,4.47-3.56,6.73-5.31L253,172.52c-1.74,1.15-3.5,2.25-5.19,3.45-3.3,2.34-6.35,5.14-9.9,7s-5,3.87-1.65,8.17c-10.68,0-13.55,8.46-18.25,15.06,2.24,5.08.87,8.41-4.59,10.42-9.17,3.37-12.14,9.36-9.95,19.18,1.05,4.66,1.49,9.45,2.38,15.38-6.88-3.62-9-8-8.57-13.83a5.62,5.62,0,0,0-.63-3.23c-2.05-3.21-12.08-5.44-15.29-3.27-1,.66-1.23,2.37-2.13,4.24-2.48.48-5.54.75-5.9-4.73l-2.75,3.9L167,231.75c-5.44,5.46-11.76,10.54-11.77,18.95a36.51,36.51,0,0,0,3,14.84c2.28,4.95,12.77,3.73,15.19-1.28.51-1.05.69-2.75,1.47-3.07a63.85,63.85,0,0,1,7.69-2.17c.32,1.79,1.11,3.65.87,5.37-.61,4.35-1.68,8.63-2.34,11.86l12.14,2.49c-.72,4.39-1.55,7.75-1.77,11.15-.38,6.11,3.41,8.47,9.32,7.6,2.72-.4,5.85,2,9.21,3.27,1.11-5.69,6.62-8.77,11.53-12,1.69-1.12,5.87-.46,7.65,1,5.5,4.39,10.79,7.2,17.79,3.46,1.28-.68,3.23-.09,4.87-.09l-1,1.22,13.54,15c4.31-2.73,7.73-1.9,12.23,2.82,7.58,7.92,7.75,10.37,1.35,19.54l1.22,1.31a17.36,17.36,0,0,1,2.45-3.79,7.19,7.19,0,0,1,3.34-1.4c2.18,3.87,5.41,1.18,8.12,1.48,1.28.14,3.12.32,3.68,1.16,3.44,5.17,9.06,3.67,13.76,5.05,2.57.76,4.74,2.9,7,4.48,2,1.35,4.35,2.46,5.68,4.3,1.13,1.54,1,4,1.43,6l1.36.28q-6.07,9.24-12.12,18.49a3.68,3.68,0,0,0-.42,1.41c-.76,4.77,1.67,9.52-1.38,14.53-2.34,3.85-2.45,9.07-3.23,12.33-6.4,3.58-11.95,6.65-17.46,9.79-.67.38-1.67,1.21-1.6,1.69.85,5.6-2.3,10.09-4.12,14.89-.78,2-2.81,3.6-4.29,5.37-.55.67-1.47,1.24-1.65,2-1.93,8.21-4.55,9.76-12.58,7.36-.36-.11-.87.28-1.36.46,7.85,8.2,5.93,11.54-9,15.9-.81,8.67-.81,8.67-7.49,6.52-.15.26-.51.64-.44.77,3.92,6.48,3.62,9.78-2,15.07-2.69,2.54-3.76,4.26.63,5.87.68.25,1.59,1.74,1.39,2.26-1.36,3.43-3,6.74-4.52,10.12a10.83,10.83,0,0,0-1.33,3.9c0,3,.35,6,.56,9Z"/><path class="cls-1" d="M371.2,22.54c1.05.57,1.56.87,2.09,1.12s1.2.5,2.24.94L366.3,33l.78,1.6a33.62,33.62,0,0,1,5.61.36A4,4,0,0,1,375.4,37a3.81,3.81,0,0,1-1.3,3.11c-3.83,3.2-3.79,3.9-.06,6.73.85.65,1.34,3.51.95,3.77-4.21,2.77-6.32,9.47-13.27,7.38a2.5,2.5,0,0,0-2.1,1.35,2.83,2.83,0,0,0,1.17,2.31c1.2.78,3.35.79,3.88,1.78,1,1.86,1.14,4.19,1.64,6.32a45.63,45.63,0,0,1-5.64-.85c-.88-.23-1.46-1.5-2.33-1.79a6.17,6.17,0,0,0-3.58-.12c-.62.21-.86,1.57-1.26,2.42a16.07,16.07,0,0,0,3.36,1.48c2.17.43,4.39.55,6.82.83-3.17,8-12.09,13-19.19,11.34-3.79-.9-6.35,0-6.89,4.09s-3.27,5.43-6.88,5.84c-2.31.27-4.61.69-6.93.89-3.36.3-5.9,1.18-5.22,5.41a5.47,5.47,0,0,1-.63,2.83c-1.73,3.88-3.78,7.64-5.29,11.6-2.18,5.69-4.43,6.31-8.78,2.13-.64-.62-1.87-.58-2.6-1.14-1.78-1.36-4.24-2.58-5-4.44-2.83-7.08-5.26-14.34-7.47-21.64-1-3.2.59-5.59,3.63-7.39,1.67-1,2.62-3.22,3.9-4.88-1.5-1-3-1.95-4.49-2.91-.65-.41-1.32-.79-2.72-1.62l5.07-1.74c-.8-3.46-.8-3.46-4.77-2.41-1.35-5.41-2.25-11-4.16-16.19-2.52-6.84-5.55-8.14-12.84-6.9-5.91,1-11.53,1.05-16.28-5.09l8.84-1c-1.06-4.05-3.71-2.76-6-2.53-2,.21-4,.31-6.06.46l-.44-1.86c4.62-2.52,9.09-5.44,13.94-7.38,2.57-1,4.44-1.29,4.37-4.72,0-1.14,2.11-2.62,3.55-3.43,1.77-1,4.9-.92,5.59-2.26,2.33-4.47,6.76-5.08,10.59-6.33,1.85-.6,4.47,1.2,6.84,1.94.46-.57,1.37-2.31,1.89-2.2a7.65,7.65,0,0,1,3.24,2.22,33.3,33.3,0,0,1,2.61,3.17l1.22-.81c.11-1.44.23-2.88.42-5.37l10.13,2.27c.22-1.46.59-3.93,1.1-7.29,5.49,4.59,9.06,2.21,14-1.42C335.86,0,342.4.6,347.81,0c1.26-.14,2.69,1.24,4,1.92l-.16,1.36-8,2.44.05,1.3c7.55.3,15.4-7.09,23.95.09l-24.42,4.21.44,2c3.31-.86,6.62-1.69,9.93-2.57s5.69-.61,4.22,4.49l9-3.8.84,1.14-4.32,6.07.64.95a24.14,24.14,0,0,0,4.21-2.42c5.05-4.43,11.18-4.76,17.37-4.71,1.28,0,2.55,1.18,3.82,1.82-1,1.18-1.73,3-3,3.44C381.69,19.52,376.76,20.85,371.2,22.54Z"/><path class="cls-1" d="M781,438.31l3.26-6.61-7.81,7.07c-2.94-10.61-8.16-13.08-17.2-9.11-1.29.57-3,.11-4.36.63-2.59,1-5,2.56-7.58,3.49a49.89,49.89,0,0,1-10.46,2.89c-2.35.29-4.66-1-6.57,1.87-.44.66-4.27-.26-5.93-1.36-1.16-.77-2.27-4.05-1.75-4.58,6-6.08.23-11.83-.28-17.64-.23-2.63-1.42-5.19-2.47-8.83l4,1.72a9.73,9.73,0,0,0-.3-1.43c-.91-2.38-2.31-4.71-2.57-7.15-.11-1,2.1-2.38,3.4-3.4.59-.46,1.89-.23,2.25-.74,3.63-5.22,9.54-5.43,14.84-7.17,4.65-1.52,7.61-4.79,6.66-10.95l2.56,1.71c2.7-3.21,5.22-6.67,8.23-9.61,1.92-1.88,4.17-1.63,5.69,1.16,1.27,2.32,3.52,3.78,4.2,0,.86-4.69,3.16-6.63,8.23-6.31l-3.35-5.09c2.5.46,3.82.63,5.1,1,2.83.73,5.64,1.51,8.45,2.33,1,.3,2.55.52,3,1.25s-.45,2.06-1,3c-1.06,1.77-2.31,3.43-3.61,5.32,3.68,2.51,6.83,4.82,10.17,6.84,1,.59,3.31.84,3.56.4a24.55,24.55,0,0,0,2.93-7c.78-3.76.83-7.66,1.61-11.42.19-.92,2-1.5,3.09-2.24.46,1.43,1,2.84,1.34,4.3.5,2.23.09,5.19,1.4,6.61a17.62,17.62,0,0,1,4.77,13.21c-.08,2.75.38,5,3.51,5.67.61.14,1.5.46,1.69.93,3.63,9,13.47,15.93,9.08,27.67-.78,2.07-.23,4.63-.41,6.95-.08,1.12-.08,2.49-.7,3.27-3.32,4.2-6.82,8.25-10.27,12.35-.52.62-1.48,1.22-1.53,1.87-.56,8.51-8.25,9.2-13.47,10.18-4.56.87-10-2.3-14.87-4-.81-.29-1.48-2.46-1.36-3.67C786.57,439,785.79,438,781,438.31Z"/><path class="cls-1" d="M264,99c-2.49-3.2-4.19-5.58-6.11-7.76-.54-.6-2.07-1.1-2.58-.77a4,4,0,0,0-1.65,2.74,3.42,3.42,0,0,0,1.44,2.71c6,3,6.74,5.8,2.75,12.19l-5.56-4.46-.62.47,4.17,7.15c-2.37-.34-3.87-.15-4.87-.77-2.68-1.67-5.5-3.34-7.6-5.63-3-3.26-5.68-5.19-10.32-2.94-1.1.53-3.52-1.67-5.34-2.62,1.28-1.45,2.33-3.27,3.9-4.22,1.3-.79,3.29-.33,4.86-.79,4.11-1.21,6.75-4.11,6.61-8.35-.15-4.85-3.72-5.72-7-4.76-1.25-2.75-1.93-5-3.26-6.78-.52-.69-3.06-.89-3.7-.28-2.34,2.22-4.14,1.77-6.58.13-1.26-.84-3.33-.69-5-.62-2.23.1-4.44.55-7.21.93l.83-4.59c-5.4-1.25-4.09-5.23-3.13-8.68,1.25-4.51,4.52-6.31,9.35-5.35a22,22,0,0,0-1.64,4,8,8,0,0,0,.49,2.89c.71-.68,1.84-1.24,2.06-2.05.9-3.25,2.08-6,6.08-6.11,4.52-.16,5.65,1.49,3.7,5.57-.41.85-.73,1.73-1.15,2.73,2.37-1.33,4.33-2.9,6.57-3.61,3.82-1.21,7.14-.9,8.66,3.94.5,1.61,2.46,3,4.08,4,2,1.16,4.33,1.65,6.47,2.55,5.86,2.46,6.55,4.91,3,9.72,1.5,7.47,10.49,4.25,13.67,9.89C267.85,92.14,266.28,95,264,99Z"/><path class="cls-1" d="M226.46,32l-2.73-8.47,8,3c-1-7.77,8.64-1.72,9.19-7.81-8.2,1.31-17.76,8.59-22.78-4.28,2.85-1.5,5.36-3,8-4.15,1.08-.45,3.08-.51,3.73.16,3.15,3.28,5.18,2.09,7.7-.89,1-1.13,3.44-1.07,5.25-1.37s3.49-.34,5.24-.49c.23-.51.46-1,.68-1.51l2.6,4.87c7.46-9.39,16.47-2.52,24.41-4.06,1.32-.26,3.1,1.85,4.67,2.86l-.14,1.8-13.61,2.76c1.78,6.71-4.61,12.64-11.58,11.19a8.24,8.24,0,0,0-6,1.74c-3.68,3-6.93,6.5-10.62,10.06,1.75,3,.68,6.49-4.15,7.11a67.58,67.58,0,0,1-16.39,0c-2.12-.26-3.94-3-5.56-5.26C219.63,40.33,221.55,33.31,226.46,32Z"/><path class="cls-1" d="M726.92,335.05c-4.1,2.79-7.6,1.61-9.5-2.6-1.11-2.48-2.83-4.68-4.16-7.07s-1.45-5.54,1.62-5.14c5.22.7,6.88-3.79,10-5.73,3.94-2.45,6.64-6.89,10.13-10.76a9.54,9.54,0,0,1,1.8.61c2.27,1.12,4.5,2.33,6.74,3.5-1.44,1.85-3.36,3.51-4.17,5.6-.58,1.49.25,3.57.61,5.36.28,1.42,1.55,3.12,1.1,4.14-1.65,3.79-4.12,7.23-5.74,11C732.86,339.85,731.42,340.19,726.92,335.05Z"/><path class="cls-1" d="M781.44,337.73c4.12-2.82,7.19-5.28,10.61-7.08,1.38-.73,3.66-.4,5.3.14,5.1,1.65,10.1,3.64,15.74,5.71a16.36,16.36,0,0,1,2.9,3.67c1.4,3,5.72,4.31,4.66,8.8-.2.82,1.91,2.32,3.13,3.31,1.57,1.27,3.31,2.34,5.25,3.68-4.43,3-9.13,2.24-12-1.34-1-1.3-1.52-3.36-2.8-4-1.59-.83-5.07-1.35-5.45-.69-2.84,5-6,5.25-10.66,2.37-1.56-1-4.21-.15-7.1-.15,5.05-7.06,1.93-12.78-6.07-13.71C783.91,338.27,782.84,338,781.44,337.73Z"/><path class="cls-1" d="M138.87,73.8l8.89-2.21.13-.77c-1.26-.18-2.56-.25-3.79-.55-1.86-.47-3.69-1.1-5.53-1.66l5-3.14C148.35,60,153.89,58.21,157,62.3c2.26-2.33,2.26-2.33,6.9,2.11,1.7-6.51,2.32-6.86,7.58-4-3.41,6.47,1.8,8.78,6.88,11.85l-4.65,1.25,1.53,4C168.79,82.55,146.9,80.68,138.87,73.8Z"/><path class="cls-1" d="M533.66,405.27c-.48-2.46,2.29-5.84-2-7.31a16.31,16.31,0,0,1,1.53-3.82c2-2.76,4.28-4.79,1.73-9s1.57-8.24,6.58-10.46c3.07-1.36,4.69-6.06,6.85-9.34.38-.58.23-1.53.4-2.95,1.36.62,2.91.84,3.11,1.49,1,3.3,2.45,6.76,2.23,10.06-.24,3.62-1.33,7.77-3.5,10.53-3.69,4.69-2.25,10.26-4.13,15.1-.79,2-1.85,4.32-3.49,5.6C540.2,407.36,536.84,408.75,533.66,405.27Z"/><path class="cls-1" d="M409.81,143.45c-2.69-2.57-5-4.46-6.9-6.7-2-2.4-1.43-9.39.78-11.45,1.5-1.39,3.09-2.4,3.85.78.14.58.9,1.43,1.39,1.45,5.09.18,2.94,2.12,1.55,3.71,2.09,3.81,4.07,7.6,6.22,11.31.88,1.52,2.27,2.75,3.09,4.28.63,1.16,1.4,3,.93,3.85a11.22,11.22,0,0,1-7.3,6c-3.39.78-6.88,1.12-11.21,1.79l4.16-6.08-1,.28c-.22-2.22-.44-4.43-.7-7Z"/><path class="cls-1" d="M694.44,318.8c2,3.4,3.85,6.84,5.93,10.17a17.79,17.79,0,0,0,2.85,2.91l3.48-3.95c1.35,1.39,2.61,2.71,3.87,4l-2.36,1c-.58,1.86-1.06,3.77-1.77,5.58s-1.64,3.52-2.47,5.27c-1.48-.78-3.42-1.2-4.36-2.4-5.06-6.48-11.06-12.18-13.55-20.64-.94-3.19-5.68-5.22-8.63-7.85a18.91,18.91,0,0,1-2.74-3.12c-.08-.1,1.08-1.55,1.59-1.51a10,10,0,0,1,4.45,1.14c4.71,3,9.25,6.32,13.86,9.5Z"/><path class="cls-1" d="M575.89,41.89c-1.88.86-3.49,1.5-5,2.29-5.85,3-12,5.63-17.42,9.3-8.45,5.74-8.53,9.22-1.56,16.14-2.93,3.4-7.42,2.76-10.11-.29-5.24-5.95-1.82-9.95,1.19-15.49C547.44,45.65,555,45.19,562.22,43a17.75,17.75,0,0,0,5.37-2.16C570.52,38.67,573,38.66,575.89,41.89Z"/><path class="cls-1" d="M121.88,64.89c2.1-3.6,4-7,6.08-10.3.84-1.32,1.45-3.81,4-1.65.33.28,2-1.08,2.52-1.35a98,98,0,0,1,9.84,3.61c1.61.78,2.76,2.52,4.12,3.83a31.45,31.45,0,0,1-4.4,3.41c-3.46,1.86-7.25,3.16-10.59,5.21C127.8,71.16,125.37,70.65,121.88,64.89Z"/><path class="cls-1" d="M450.56,26c2.08-1.63,3.51-3.63,4.86-3.56s2.7,2.14,4.09,3.27a65.65,65.65,0,0,0,5.93,4.63c1.65,1.06,3.71,1.49,5.32,2.59a3.18,3.18,0,0,1,.72,2.93,3.48,3.48,0,0,1-2.57,1.6,37.61,37.61,0,0,1-5.63-.38c-.25-1.12-.56-2.46-.92-4.08-5.88.19-4.83,5.27-6.07,8.51-5.22-1.75-7.64-5.95-6.86-10.37-2.56-.15-6.21.67-7.56-.72-1.5-1.55-3.23-5.65,1-7Z"/><path class="cls-1" d="M778.78,213c0,.52-.12,1.63-.19,2.64-1.52,1.34-4.53-4.1-4.35,1.6l-7.54-4.44L777,207.07l.74,1c.41-1.39.83-2.77,1.3-4.33h5.39c.34-3.54.5-7.09,1.1-10.57.24-1.37,1.45-2.57,2.22-3.85a16.55,16.55,0,0,1,2.59,2.93c1.07,2,1.83,4.17,2.65,6.1-.67,1.53-2.38,3.56-1.93,4.77,1.68,4.48,0,7.86-3.49,9.64C785.23,213.9,781.87,213,778.78,213Z"/><path class="cls-1" d="M371.67,104l-9.9-3c.21-.89.6-2.54,1.15-4.83l-6.56,1c1.45-2.92,2.22-5.1,3.58-6.78.38-.46,2.58.89,3.94.87a109.75,109.75,0,0,0,12.17-.66c2.57-.32,5.5-2.19,6.39,1.89.79,3.63.26,7-3.9,8.62C376.08,102.07,373.67,103.12,371.67,104Z"/><path class="cls-1" d="M214.88,53c-4.49,0-12.84-6-13.09-9.51-.1-1.36,1.82-3.91,3.06-4.08,2.08-.27,6.12.68,6.25,1.56.81,5.66,5,5.62,8.91,6,2.8.27,5.69-.33,8.47,0a5.94,5.94,0,0,1,3.69,2.6c.52.83-.19,2.43-.35,3.69-1.36-.24-2.72-.53-4.08-.7a41.6,41.6,0,0,0-6.74-.67A40.78,40.78,0,0,0,214.88,53Z"/><path class="cls-1" d="M222.06,25.63c-2.8,3.44-4.33,7.13-6.77,7.88-3.58,1.11-8.27.84-8.24-5.3,0-.36-1.08-.73-1.66-1.09a14.28,14.28,0,0,1-1.55-.9,64.51,64.51,0,0,1,4.19-9c.41-.67,3.2-.72,4.15,0C215.36,19.48,218.2,22.26,222.06,25.63Z"/><path class="cls-1" d="M870.75,457.28c6.2,2.11,6.23,2.6,2,7.22-4,4.38-7.49,9.18-11.47,13.55-1.41,1.56-3.89,3.62-5.35,3.27-1.75-.43-3.84-3.08-4.08-5-.21-1.69,1.51-4.18,3.08-5.41,4-3.16,8.58-5.67,12.68-8.76C869,461.15,869.6,459.16,870.75,457.28Z"/><path class="cls-1" d="M758.23,320.43c0,.14.2,2.45,0,2.49-3.65.69-7.36,1.1-11.36,1.61l1.17,4.09,4.8-.67c-.71,2-1.41,3.95-2.25,6.27,1,2.32,2.31,5.2,3.89,8.78-5-.08-6.82-1.95-6.37-5.85-.62.15-1.13.15-1.19.31-.64,1.78-1.2,3.57-1.79,5.36-.72-.32-2.05-.66-2.05-1,0-3.46-5.77-5.19-2.66-9.59,1.66-2.36,3.51-5,3.94-7.72.57-3.66,2.36-3.62,5.16-3.47C752.11,321.21,754.77,320.71,758.23,320.43Z"/><path class="cls-1" d="M177.15,50.19c-5.66,1-10,1.91-14.29,2.61a33.38,33.38,0,0,1-8.28.77c-1.15-.11-2.1-2.23-3.14-3.44a41.82,41.82,0,0,1,3.71-2.66c2.67-1.52,5.94-2.39,8-4.46,2.54-2.53,3.78-3.17,5.64.4.56,1.08,2.45,1.38,3.53,2.28C174.13,47.18,175.76,48.87,177.15,50.19Z"/><path class="cls-1" d="M276.71,171.28l-1.55,2.19-2.39-4.91a19.36,19.36,0,0,1-2.9.51c-1.36,0-3.73.23-3.9-.27-.51-1.42-.73-3.59,0-4.69a56.09,56.09,0,0,1,6.58-7.14,2.09,2.09,0,0,1,1.81-.23c2.17.82,8.24,11.43,7.83,13.76-.17.9-1.05,2.47-1.33,2.41A22.87,22.87,0,0,1,276.71,171.28Z"/><path class="cls-1" d="M879.44,461.54c-2.25-1.05-4.22-7.27-1.68-10.06,3-3.33,3-6.12.67-9.62-.8-1.2-.76-3-1.37-5.62,6.59,2.38,4.14,12.27,12.24,11.06l.92,1.1a47.66,47.66,0,0,1-3.79,6.23A98.06,98.06,0,0,1,879.44,461.54Z"/><path class="cls-1" d="M730.23,352.94l-17.45-3.1a15.93,15.93,0,0,1-3.37-.58,48.23,48.23,0,0,1-4.66-2.58c1.6-1.2,3.31-3.54,4.79-3.4,4.86.46,9.62,2.47,14.46,2.63,4,.13,5.26,2.34,6.84,4.85C730.63,351.49,730.43,352.21,730.23,352.94Z"/><path class="cls-1" d="M390.54,153.28c-.29-3.35-.78-6.35-.74-9.34,0-2.51,8.34-6.64,10.66-5.51a.91.91,0,0,1,.4.28c.5,1,1.55,2.08,1.37,2.92-.67,3.1-1,6.81-2.91,8.94C397.67,152.38,394,152.33,390.54,153.28Z"/><path class="cls-1" d="M189.88,258.17c4.89-6.36,9.94-4,14.48-2.58a59.51,59.51,0,0,1,11.21,5.32c1.24.69,2,2.32,2.91,3.53-1.72.83-3.39,2.16-5.17,2.33-1.49.15-4-.65-4.51-1.73-2.82-6.36-8.29-9.36-15.25-7.81C192.64,257.43,191.75,257.69,189.88,258.17Z"/><path class="cls-1" d="M178.23,59.57l4.34,2c-.11-1.51-.71-3.06-.18-3.93a7.67,7.67,0,0,1,3.82-3.41c.79-.23,2.72,1.56,3.26,2.81a9.74,9.74,0,0,1,.7,5.59c-.44,2-1.48,4.45-3,5.32C184,69.75,177.58,63.73,178.23,59.57Z"/><path class="cls-1" d="M793.1,186.84c-2.66-.15-4.62,0-6.43-.47-1.13-.27-3-1.6-2.91-2.14.8-4.08,2-8.09,2.77-11a91.45,91.45,0,0,1,8.75,6c.82.69.78,3.1.32,4.45S793.65,186.18,793.1,186.84Z"/><path class="cls-1" d="M478.85,20.72c-3,6.45-10.83,9.29-15.39,5.87-1.32-1-1.71-3.24-2.52-4.91,1.57-.56,3.13-1.56,4.72-1.59,2.25,0,4.5.81,6.78,1A56.88,56.88,0,0,0,478.85,20.72Z"/><path class="cls-1" d="M750.3,279.09c-3.08,2.57-5.94,1.47-8.48-.56a4,4,0,0,1-1.21-3.38,46.23,46.23,0,0,1,3.43-8.08c.45-.86,2-1.92,2.64-1.71a4.06,4.06,0,0,1,2.47,2.57C749.76,271.62,750,275.38,750.3,279.09Z"/><path class="cls-1" d="M741.09,46.09c5.8-7.54,6.28,2.79,10.24,2-.6,1-.82,1.73-1.11,1.75-4.41.38-8.87,1.06-13.25.75-1.54-.11-3.13-2.58-4.19-4.28-.33-.52,1.19-3.07,1.56-3a25.67,25.67,0,0,1,5.15,1.92C739.93,45.4,740.34,45.68,741.09,46.09Z"/><path class="cls-1" d="M140.92,48.7,135.59,45c1.43-1.28,2.69-2.88,4.34-3.76a66.33,66.33,0,0,1,9-3.86,4.69,4.69,0,0,1,3.56.12c.6.36.82,2.26.42,3.09s-1.76,1.35-2.75,1.92c-1.44.83-3,1.49-4.37,2.41C144.27,46,142.85,47.2,140.92,48.7Z"/><path class="cls-1" d="M183.73,44.07a1.4,1.4,0,0,0,.47-.1c2.43-1.54,5.11-3.38,7.51-.58.84,1,.58,4.58-.11,4.89a23.32,23.32,0,0,1-8.68,2c-1,0-2.5-2.1-3.18-3.53s-.58-3.18-.82-4.8l4.51,1.33Z"/><path class="cls-1" d="M779.51,141.51c1,.59,2.24,1,2.79,1.82,1.54,2.4,4.25,5.3,3.81,7.46-.88,4.34,2.08,6.71,3,10,.1.34-1.45,1.62-2.24,1.62a12.18,12.18,0,0,1-3.58-1.06c-1.64-6.5-3.23-12.78-4.82-19.07Z"/><path class="cls-1" d="M216.91,268.09l4.41-.2c1.05-1.8,2.42-4.62,2.69-4.52,3.87,1.45,7.59,3.28,12.07,5.36C230.68,272.18,219.14,271.57,216.91,268.09Z"/><path class="cls-1" d="M802.38,458.47c1.48,1.15,4.09,2.19,4.23,3.48.35,3.48-3.53,7.16-6.55,7.13-3.47,0-4.07-2.44-3.89-5.06.21-3.23,1.05-6.18,5.67-4.34Z"/><path class="cls-1" d="M193.86,66.1c-.05-11.36,3.56-13.82,14.06-9.67Z"/><path class="cls-1" d="M621.44,19.83c2.46-1.56,4.76-3.55,7.43-4.49,1.22-.42,3.83.83,4.58,2.06.63,1,0,4-1,4.65C626.14,26.21,624,25.62,621.44,19.83Z"/><path class="cls-1" d="M182,27c2.71,1.82,5.34,3.14,7.33,5.12.9.89.51,3.08.7,4.67-1.86-.09-3.82.14-5.57-.37a11.68,11.68,0,0,1-4.3-2.69c-1-.92-2.42-2.59-2.15-3.43C178.42,29.09,180.2,28.37,182,27Z"/><path class="cls-1" d="M758.37,308.49c-.23-4.43-7.73-5.41-3-10.75,1.51-1.72,3.29-4.34,6.1-1.52S763.56,302.88,758.37,308.49Z"/><path class="cls-1" d="M218,100.83l-9.24,6.75c-.8-2.78-2-5.16-1.94-7.52,0-1.06,2.29-2.73,3.75-3C213.73,96.44,216.82,97,218,100.83Z"/><path class="cls-1" d="M629,26.93c9.49-6.44,9.49-6.44,13.6,2.14C637.73,31.72,634,28.66,629,26.93Z"/><path class="cls-1" d="M648.1,25.38c.82,3.2,8,.16,5.63,6.26-1,2.56-7.3,3.61-8.61,1.25-1-1.75.4-4.79.72-7.26Z"/><path class="cls-1" d="M633.39,294.52c5.57,2.92,6.58,6.12,5.94,9.79a4.08,4.08,0,0,1-2.74,2.69c-1,.12-3-1.21-3.06-2.08C633.15,301.87,633.39,298.75,633.39,294.52Z"/><path class="cls-1" d="M243.61,508.22c4.39-1.45,5.41-1,11.39,6-3.73,0-6.86.54-9.7-.14-3.3-.78-3.93-3.23-1.57-6Z"/><path class="cls-1" d="M203.77,33.38c-2.44,1.73-4,3.71-5.28,3.5-1.39-.23-3.42-2.45-3.4-3.77s2.19-3.49,3.56-3.6S201.41,31.48,203.77,33.38Z"/><path class="cls-1" d="M261.51,504.9c1.25-2.7,1.72-5.21,2.62-5.37,2.89-.53,5.93-.2,8.92-.2l.26,2.38Z"/><path class="cls-1" d="M768.5,225.7c-4.11-.61-2.65-5.53-6.44-4.11,0-.9-.34-2.08.1-2.66,1.06-1.4,2.49-2.51,5.05-5C767.71,218.58,768.08,221.91,768.5,225.7Z"/><path class="cls-1" d="M744.32,245.38c.26,3.09.52,6.17.83,9.83C738.86,252.88,738.54,250.24,744.32,245.38Z"/><path class="cls-1" d="M180.44,81.06c.29-4.68,1-7.46,4.77-6.81,1.23.21,2.11,2.43,3.16,3.72Z"/><path class="cls-1" d="M169,31.82l-9.14,2.08-1-1.52c1.67-1.37,3.16-3.33,5.07-3.92,1.5-.47,3.53.76,5.33,1.24Z"/><path class="cls-1" d="M766.91,48.71c-6.28,2.63-9,2-11.42-2.59C758.76,48.9,763.42,43.81,766.91,48.71Z"/><path class="cls-1" d="M768,326.87c-4.91-3.32-4.91-3.32,0-11.43Z"/><path class="cls-1" d="M737.78,301.49c-3-7,3.16-8.46,4.62-12.1C743.58,294.07,740.27,296.9,737.78,301.49Z"/><path class="cls-1" d="M712.88,261.67c4.25,5.05,3.27,7.33-3.12,8.42C711,266.83,711.92,264.25,712.88,261.67Z"/><path class="cls-1" d="M159.85,41.76c-.08-6.85.13-7,7.86-6.5C167.2,40,162.28,38.51,159.85,41.76Z"/><path class="cls-1" d="M841.42,71.15c.61-5,2.68-6.48,5.9-6,.84.14,1.43,1.77,2.13,2.71Z"/><path class="cls-1" d="M831.43,337.34c-.27,6.46-2.59,7.91-8.48,5.62Z"/><path class="cls-1" d="M791.49,329.71l-8.19,3.21C784.43,326.41,784.85,326.24,791.49,329.71Z"/><path class="cls-1" d="M194.68,49.71c1.28-2.31,3.08-3.64,5.79-2,.53.33.55,2.71.4,2.76-1.88.54-3.84.83-5.77,1.19Z"/><path class="cls-1" d="M834.42,338.22,830,330.06C835.69,330.48,837,332.69,834.42,338.22Z"/><path class="cls-1" d="M32.1,130.39l3.45,1.6a43.11,43.11,0,0,1-3.06,4c-.18.19-1.59-.37-2-.9a2.48,2.48,0,0,1-.08-2.12,17.84,17.84,0,0,1,1.87-2.73Z"/><path class="cls-1" d="M861.3,391.76c4.92-2.4,7.1-.93,6.71,4.83Z"/><path class="cls-1" d="M195.74,28.23c-1.09-1.72-2.24-2.74-2.11-3.55.16-1,1.59-2.59,2.16-2.47,1.2.26,2.2,1.46,3.28,2.28Z"/><path class="cls-1" d="M755.39,286.67l-5-3.26c.67-.77,1.73-2.3,1.94-2.19a47.79,47.79,0,0,1,4.86,3.19Z"/></svg>